<svg width="450" height="148" viewBox="0 0 450 148" fill="none" xmlns="http://www.w3.org/2000/svg">
<g clip-path="url(#clip0)">
<g filter="url(#filter0_d)">
<rect x="4.79205" y="22.3096" width="94" height="115" rx="5" transform="rotate(-4.7086 4.79205 22.3096)" fill="#F5F3ED"/>
<rect x="4.79205" y="22.3096" width="94" height="115" rx="5" transform="rotate(-4.7086 4.79205 22.3096)" fill="url(#paint0_linear)" style="mix-blend-mode:screen"/>
<rect x="5.33141" y="22.7669" width="93" height="114" rx="4.5" transform="rotate(-4.7086 5.33141 22.7669)" stroke="#CECECE"/>
</g>
<path d="M73.6534 49.9502L74.1706 56.2289C80.1005 55.7405 80.9451 60.0256 79.9693 65.2333L74.5756 88.4344L68.2969 88.9515L59.4768 66.2891C57.6916 60.8171 59.869 57.4069 64.8222 56.9989L64.3051 50.7202L44.1434 52.3808L44.6605 58.6596C49.8928 58.2286 52.3026 61.0503 51.367 66.7463L46.3911 90.7558L40.3914 91.25L31.5812 70.4129C29.3076 64.9812 29.0334 59.9467 35.3819 59.4238L34.8648 53.1451L15.1914 54.7655L15.7085 61.0442C22.7547 60.4638 25.6389 65.6345 27.9009 70.9267L42.047 104.529L47.4886 104.081L54.5917 68.3771L56.5451 68.2162L69.5339 102.265L75.115 101.805L83.5609 66.2017C84.8568 60.6165 86.7978 55.1889 93.844 54.6085L93.3268 48.3298L73.6534 49.9502Z" fill="#702882"/>
<g filter="url(#filter1_d)">
<rect x="103.334" y="9.37592" width="94" height="115" rx="5" transform="rotate(4.07052 103.334 9.37592)" fill="#F5F3ED"/>
<rect x="103.334" y="9.37592" width="94" height="115" rx="5" transform="rotate(4.07052 103.334 9.37592)" fill="url(#paint1_linear)" style="mix-blend-mode:screen"/>
<rect x="103.797" y="9.91015" width="93" height="114" rx="4.5" transform="rotate(4.07052 103.797 9.91015)" stroke="#CECECE"/>
</g>
<path d="M161.284 82.9952L149.464 45.9427L134.592 44.8843L134.145 51.1684C140.987 51.6554 140.53 56.1142 138.656 60.7528L128.472 81.5725C126.134 85.8273 123.402 89.7031 117.397 89.2758L116.95 95.5599L137.758 97.0406L138.205 90.7565C133.177 90.3988 131.297 88.2298 131.525 85.0179C131.62 83.6913 132.108 81.761 132.686 80.539L134.002 77.8256L156.625 79.4355L157.778 82.9562C158.097 84.3825 158.207 85.7939 158.133 86.8412C157.899 90.1229 155.73 92.0037 150.703 91.646L150.256 97.9301L171.063 99.4108L171.511 93.1267C165.157 92.6745 163.041 87.8923 161.284 82.9952ZM135.567 74.5685L145.008 55.31L148.988 55.5933L155.537 75.9896L135.567 74.5685Z" fill="#702882"/>
<g filter="url(#filter2_d)">
<rect x="176.545" y="23.993" width="94" height="115" rx="5" transform="rotate(-2.17377 176.545 23.993)" fill="#F5F3ED"/>
<rect x="176.545" y="23.993" width="94" height="115" rx="5" transform="rotate(-2.17377 176.545 23.993)" fill="url(#paint2_linear)" style="mix-blend-mode:screen"/>
<rect x="177.064" y="24.4737" width="93" height="114" rx="4.5" transform="rotate(-2.17377 177.064 24.4737)" stroke="#CECECE"/>
</g>
<path d="M244.618 90.0084C242.706 94.9846 236.57 99.4205 227.196 99.7763C216.004 100.201 206.895 94.5926 206.404 81.6519C205.91 68.6413 214.724 62.7728 226.475 62.3267C232.561 62.0957 238.492 63.3416 242.619 68.7189L246.117 68.5862L245.586 54.5963L242.088 54.729L239.693 61.7549C236.798 57.4516 231.893 53.715 224.198 54.0071C211.257 54.4983 202.306 65.9761 202.904 81.7147C203.506 97.5933 213.525 108.701 227.655 108.165C240.526 107.676 246.527 97.8517 247.906 89.8837L244.618 90.0084Z" fill="#702882"/>
<g filter="url(#filter3_d)">
<rect x="269.812" y="6.4064" width="94" height="115" rx="5" transform="rotate(4.74814 269.812 6.4064)" fill="#F5F3ED"/>
<rect x="269.812" y="6.4064" width="94" height="115" rx="5" transform="rotate(4.74814 269.812 6.4064)" fill="url(#paint3_linear)" style="mix-blend-mode:screen"/>
<rect x="270.269" y="6.94607" width="93" height="114" rx="4.5" transform="rotate(4.74814 270.269 6.94607)" stroke="#CECECE"/>
</g>
<path d="M323.145 84.3285L308.347 68.8404L321.627 57.7917C329.473 52.1218 330.612 51.0925 337.518 51.6662L338.04 45.3878L318.158 43.7364L317.637 50.0148C320.776 50.2755 322.287 50.682 322.166 52.147C322.114 52.7748 321.782 53.3795 320.94 54.2226L305.48 66.9867L298.504 66.4073L299.171 58.3849C299.576 53.5018 300.406 48.5836 310.94 49.4585L311.461 43.1801L288.789 41.297L288.268 47.5754C295.802 48.2012 296.042 53.7701 295.613 58.9323L294.135 76.7211C293.707 81.8833 292.551 87.3364 285.017 86.7106L284.496 92.989L307.168 94.8721L307.689 88.5938C297.155 87.7188 297.148 82.7311 297.554 77.8479L298.226 69.7558L305.132 70.3294L316.343 81.6563L316.273 81.6505C319.815 85.5269 320.64 86.5789 320.542 87.7648C320.414 89.2995 318.926 89.4569 315.717 89.1903L315.196 95.4687L335.077 97.1201L335.599 90.8417C328.972 90.2913 327.867 89.2161 323.145 84.3285Z" fill="#702882"/>
<g filter="url(#filter4_d)">
<rect x="340.335" y="23.6092" width="94" height="115" rx="5" transform="rotate(-6.61673 340.335 23.6092)" fill="#F5F3ED"/>
<rect x="340.335" y="23.6092" width="94" height="115" rx="5" transform="rotate(-6.61673 340.335 23.6092)" fill="url(#paint4_linear)" style="mix-blend-mode:screen"/>
<rect x="340.889" y="24.0482" width="93" height="114" rx="4.5" transform="rotate(-6.61673 340.889 24.0482)" stroke="#CECECE"/>
</g>
<path d="M398.204 104.53C412.25 102.901 420.582 89.6726 418.839 74.6533C417.097 59.634 405.999 49.0121 391.953 50.6414C377.908 52.2707 369.466 65.1592 371.209 80.1785C372.951 95.1978 384.159 106.159 398.204 104.53ZM374.755 79.7671C373.311 67.3206 381.309 60.3324 392.921 58.9854C404.533 57.6384 413.849 62.6182 415.293 75.0647C416.737 87.5112 408.849 94.839 397.237 96.186C385.624 97.533 376.199 92.2137 374.755 79.7671Z" fill="#702882"/>
</g>
<defs>
<filter id="filter0_d" x="0.792053" y="14.5933" width="107.123" height="126.328" filterUnits="userSpaceOnUse" color-interpolation-filters="sRGB">
<feFlood flood-opacity="0" result="BackgroundImageFix"/>
<feColorMatrix in="SourceAlpha" type="matrix" values="0 0 0 0 0 0 0 0 0 0 0 0 0 0 0 0 0 0 127 0"/>
<feOffset dx="-2" dy="2"/>
<feGaussianBlur stdDeviation="1"/>
<feColorMatrix type="matrix" values="0 0 0 0 0 0 0 0 0 0 0 0 0 0 0 0 0 0 0.19 0"/>
<feBlend mode="normal" in2="BackgroundImageFix" result="effect1_dropShadow"/>
<feBlend mode="normal" in="SourceGraphic" in2="effect1_dropShadow" result="shape"/>
</filter>
<filter id="filter1_d" x="91.1704" y="9.37592" width="105.926" height="125.382" filterUnits="userSpaceOnUse" color-interpolation-filters="sRGB">
<feFlood flood-opacity="0" result="BackgroundImageFix"/>
<feColorMatrix in="SourceAlpha" type="matrix" values="0 0 0 0 0 0 0 0 0 0 0 0 0 0 0 0 0 0 127 0"/>
<feOffset dx="-2" dy="2"/>
<feGaussianBlur stdDeviation="1"/>
<feColorMatrix type="matrix" values="0 0 0 0 0 0 0 0 0 0 0 0 0 0 0 0 0 0 0.19 0"/>
<feBlend mode="normal" in2="BackgroundImageFix" result="effect1_dropShadow"/>
<feBlend mode="normal" in="SourceGraphic" in2="effect1_dropShadow" result="shape"/>
</filter>
<filter id="filter2_d" x="172.545" y="20.4275" width="102.294" height="122.483" filterUnits="userSpaceOnUse" color-interpolation-filters="sRGB">
<feFlood flood-opacity="0" result="BackgroundImageFix"/>
<feColorMatrix in="SourceAlpha" type="matrix" values="0 0 0 0 0 0 0 0 0 0 0 0 0 0 0 0 0 0 127 0"/>
<feOffset dx="-2" dy="2"/>
<feGaussianBlur stdDeviation="1"/>
<feColorMatrix type="matrix" values="0 0 0 0 0 0 0 0 0 0 0 0 0 0 0 0 0 0 0.19 0"/>
<feBlend mode="normal" in2="BackgroundImageFix" result="effect1_dropShadow"/>
<feBlend mode="normal" in="SourceGraphic" in2="effect1_dropShadow" result="shape"/>
</filter>
<filter id="filter3_d" x="256.293" y="6.4064" width="107.197" height="126.386" filterUnits="userSpaceOnUse" color-interpolation-filters="sRGB">
<feFlood flood-opacity="0" result="BackgroundImageFix"/>
<feColorMatrix in="SourceAlpha" type="matrix" values="0 0 0 0 0 0 0 0 0 0 0 0 0 0 0 0 0 0 127 0"/>
<feOffset dx="-2" dy="2"/>
<feGaussianBlur stdDeviation="1"/>
<feColorMatrix type="matrix" values="0 0 0 0 0 0 0 0 0 0 0 0 0 0 0 0 0 0 0.19 0"/>
<feBlend mode="normal" in2="BackgroundImageFix" result="effect1_dropShadow"/>
<feBlend mode="normal" in="SourceGraphic" in2="effect1_dropShadow" result="shape"/>
</filter>
<filter id="filter4_d" x="336.335" y="12.7778" width="110.625" height="129.065" filterUnits="userSpaceOnUse" color-interpolation-filters="sRGB">
<feFlood flood-opacity="0" result="BackgroundImageFix"/>
<feColorMatrix in="SourceAlpha" type="matrix" values="0 0 0 0 0 0 0 0 0 0 0 0 0 0 0 0 0 0 127 0"/>
<feOffset dx="-2" dy="2"/>
<feGaussianBlur stdDeviation="1"/>
<feColorMatrix type="matrix" values="0 0 0 0 0 0 0 0 0 0 0 0 0 0 0 0 0 0 0.19 0"/>
<feBlend mode="normal" in2="BackgroundImageFix" result="effect1_dropShadow"/>
<feBlend mode="normal" in="SourceGraphic" in2="effect1_dropShadow" result="shape"/>
</filter>
<linearGradient id="paint0_linear" x1="51.7921" y1="46.3096" x2="51.7921" y2="137.31" gradientUnits="userSpaceOnUse">
<stop stop-color="white"/>
<stop offset="1" stop-color="white" stop-opacity="0"/>
</linearGradient>
<linearGradient id="paint1_linear" x1="150.334" y1="33.3759" x2="150.334" y2="124.376" gradientUnits="userSpaceOnUse">
<stop stop-color="white"/>
<stop offset="1" stop-color="white" stop-opacity="0"/>
</linearGradient>
<linearGradient id="paint2_linear" x1="223.545" y1="47.993" x2="223.545" y2="138.993" gradientUnits="userSpaceOnUse">
<stop stop-color="white"/>
<stop offset="1" stop-color="white" stop-opacity="0"/>
</linearGradient>
<linearGradient id="paint3_linear" x1="316.812" y1="30.4064" x2="316.812" y2="121.406" gradientUnits="userSpaceOnUse">
<stop stop-color="white"/>
<stop offset="1" stop-color="white" stop-opacity="0"/>
</linearGradient>
<linearGradient id="paint4_linear" x1="387.335" y1="47.6092" x2="387.335" y2="138.609" gradientUnits="userSpaceOnUse">
<stop stop-color="white"/>
<stop offset="1" stop-color="white" stop-opacity="0"/>
</linearGradient>
<clipPath id="clip0">
<rect width="449.775" height="147.391" fill="white"/>
</clipPath>
</defs>
</svg>
